# File created by Blade
# Date/Time:  Tue Apr 07 20:45:22 2015
# Frame Rate: 120.000 fps
#------------------------------------------------------
:FULLY-SPECIFIED
:DEGREES
301
root 3.796040 32.686146 -6.318694 -1.370484 -17.529311 -23.210072
Spine 34.302697 17.359620 20.162466
Head -23.739139 -4.530990 11.043388
LeftShoulder -20.481001 41.323662 11.609367
LeftArm 53.076983 -20.009409 -85.839883
LeftForeArm 5.654205 -0.000000 34.429039
LeftHand 7.225217 -0.000000 12.850553
LeftHandThumb1 -26.253704 0.000000 33.147579
RightShoulder 9.616330 14.018831 -15.922991
RightArm 26.141452 52.308875 81.605893
RightForeArm 75.744539 0.000000 39.508714
RightHand 3.172547 -0.000000 30.144238
RightHandThumb1 -24.326973 -0.000000 -32.862282
LeftUpLeg -9.680311 2.862810 17.117725
LeftLeg 32.755466 -0.000000 -0.000000
LeftFoot -18.832165 14.724486 -18.132087
LeftToeBase -10.351339 -0.000000 0.000000
RightUpLeg -140.625058 -18.058337 26.713162
RightLeg 75.704616 -0.000000 -0.000000
RightFoot 42.083636 -5.367533 8.934577
RightToeBase 19.117700 -0.000000 -0.000000
302
root 3.771813 32.700472 -6.259167 -1.567119 -17.549989 -23.379662
Spine 34.091489 17.273839 20.196524
Head -23.222397 -4.503568 11.039903
LeftShoulder -20.533451 41.328785 11.622547
LeftArm 52.900621 -20.805803 -85.962225
LeftForeArm 5.742328 -0.000000 34.609677
LeftHand 7.186168 -0.000000 12.955470
LeftHandThumb1 -26.253704 0.000000 33.147579
RightShoulder 9.318179 14.312624 -16.052287
RightArm 26.196436 52.860780 81.156542
RightForeArm 75.641836 -0.000000 39.949794
RightHand 3.014715 -0.000000 30.096204
RightHandThumb1 -24.326973 -0.000000 -32.862282
LeftUpLeg -9.326451 2.799876 17.316541
LeftLeg 32.768602 -0.000000 -0.000000
LeftFoot -18.860143 14.679572 -18.184844
LeftToeBase -10.499805 -0.000000 0.000000
RightUpLeg -140.974988 -18.349017 26.686481
RightLeg 74.506081 -0.000000 -0.000000
RightFoot 42.002591 -5.428415 9.358154
RightToeBase 19.056327 -0.000000 -0.000000
303
root 3.745199 32.712816 -6.203709 -1.707714 -17.607466 -23.607743
Spine 33.824911 17.191785 20.270849
Head -22.605950 -4.456370 11.005333
LeftShoulder -20.615788 41.434492 11.607542
LeftArm 52.789764 -21.606438 -86.162270
LeftForeArm 5.824289 0.000000 34.800063
LeftHand 7.109835 -0.000000 12.930860
LeftHandThumb1 -26.253704 0.000000 33.147579
RightShoulder 9.049667 14.592144 -16.207479
RightArm 26.353953 53.324702 80.814484
RightForeArm 75.769305 -0.000000 40.376037
RightHand 2.835023 -0.000000 29.941884
RightHandThumb1 -24.326973 -0.000000 -32.862282
LeftUpLeg -8.971129 2.562153 17.515331
LeftLeg 32.715741 -0.000000 -0.000000
LeftFoot -18.970434 15.070553 -18.061928
LeftToeBase -10.505024 -0.000000 0.000000
RightUpLeg -141.293531 -18.592162 26.681782
RightLeg 73.238240 -0.000000 -0.000000
RightFoot 42.072625 -5.392817 9.562273
RightToeBase 19.174741 -0.000000 -0.000000
304
root 3.719929 32.725458 -6.147194 -1.858016 -17.711921 -23.826604
Spine 33.579935 17.162562 20.350201
Head -21.978122 -4.424902 11.015662
LeftShoulder -20.720394 41.480717 11.581631
LeftArm 52.648615 -22.345010 -86.302250
LeftForeArm 5.873318 -0.000000 34.984108
LeftHand 7.098804 -0.000000 13.102873
LeftHandThumb1 -26.253704 0.000000 33.147579
RightShoulder 8.809823 14.877982 -16.365472
RightArm 26.502299 53.827117 80.439780
RightForeArm 75.885423 -0.000000 40.715689
RightHand 2.497638 0.000000 29.895134
RightHandThumb1 -24.326973 -0.000000 -32.862282
LeftUpLeg -8.606727 2.413906 17.716396
LeftLeg 32.685356 -0.000000 -0.000000
LeftFoot -18.960293 15.420036 -17.787910
LeftToeBase -10.764308 -0.000000 0.000000
RightUpLeg -141.583122 -18.768545 26.690350
RightLeg 71.977495 -0.000000 -0.000000
RightFoot 42.147374 -5.271789 9.350629
RightToeBase 18.664414 -0.000000 -0.000000
305
root 3.692401 32.739022 -6.090832 -1.984084 -17.842121 -24.064945
Spine 33.329104 17.227260 20.460550
Head -21.345645 -4.407512 11.081101
LeftShoulder -20.766667 41.567640 11.629035
LeftArm 52.554435 -23.081039 -86.536011
LeftForeArm 6.174452 0.000000 35.200320
LeftHand 7.046259 -0.000000 13.114201
LeftHandThumb1 -26.253704 0.000000 33.147579
RightShoulder 8.525592 15.193540 -16.503184
RightArm 26.638593 54.346503 80.039536
RightForeArm 75.956697 -0.000000 40.958696
RightHand 2.606774 0.000000 30.016070
RightHandThumb1 -24.326973 -0.000000 -32.862282
LeftUpLeg -8.268691 2.297829 17.939190
LeftLeg 32.683327 -0.000000 -0.000000
LeftFoot -18.895605 15.761654 -17.429111
LeftToeBase -11.018529 -0.000000 0.000000
RightUpLeg -141.896756 -18.834463 26.782140
RightLeg 70.722305 -0.000000 -0.000000
RightFoot 42.133815 -5.851620 9.405225
RightToeBase 18.818673 -0.000000 -0.000000
306
root 3.666717 32.752199 -6.036867 -2.085226 -17.994498 -24.318624
Spine 33.071577 17.250019 20.593452
Head -20.724314 -4.360575 11.079801
LeftShoulder -20.855090 41.555211 11.608094
LeftArm 52.364245 -23.798667 -86.689798
LeftForeArm 6.361825 -0.000000 35.407668
LeftHand 6.980229 0.000000 13.172095
LeftHandThumb1 -26.253704 0.000000 33.147579
RightShoulder 8.299595 15.534450 -16.675689
RightArm 26.741699 54.882453 79.655057
RightForeArm 76.141589 -0.000000 41.274530
RightHand 2.743602 -0.000000 30.004347
RightHandThumb1 -24.326973 -0.000000 -32.862282
LeftUpLeg -7.959300 2.143214 18.156392
LeftLeg 32.693859 -0.000000 -0.000000
LeftFoot -18.838598 16.260183 -17.048590
LeftToeBase -11.223271 -0.000000 0.000000
RightUpLeg -142.221175 -18.815105 26.931038
RightLeg 69.426527 -0.000000 -0.000000
RightFoot 42.340231 -6.723150 9.361406
RightToeBase 18.146073 -0.000000 -0.000000
307
root 3.638990 32.767054 -5.981523 -2.195583 -18.173287 -24.598387
Spine 32.817054 17.195410 20.757505
Head -20.013922 -4.296924 10.947576
LeftShoulder -21.046461 41.640741 11.407790
LeftArm 52.247593 -24.540896 -86.767276
LeftForeArm 6.436491 -0.000000 35.579008
LeftHand 6.912387 -0.000000 13.261616
LeftHandThumb1 -26.253704 0.000000 33.147579
RightShoulder 8.154449 16.126668 -16.856570
RightArm 26.570577 55.400079 79.146460
RightForeArm 76.122305 -0.000000 41.573662
RightHand 2.623753 -0.000000 29.995043
RightHandThumb1 -24.326973 -0.000000 -32.862282
LeftUpLeg -7.606800 1.990082 18.389048
LeftLeg 32.675869 -0.000000 -0.000000
LeftFoot -18.884232 16.808893 -16.728674
LeftToeBase -11.339460 -0.000000 0.000000
RightUpLeg -142.449403 -18.868045 27.006567
RightLeg 68.184601 -0.000000 -0.000000
RightFoot 42.354354 -7.024054 9.318309
RightToeBase 17.323691 -0.000000 -0.000000
